<?xml version="1.0" encoding="utf-8"?>
<!-- Generator: Adobe Illustrator 23.0.3, SVG Export Plug-In . SVG Version: 6.00 Build 0)  -->
<svg version="1.1"
	 id="logosvg.com" xmlns:cc="http://creativecommons.org/ns#" xmlns:dc="http://purl.org/dc/elements/1.1/" xmlns:rdf="http://www.w3.org/1999/02/22-rdf-syntax-ns#" xmlns:svg="http://www.w3.org/2000/svg"
	 xmlns="http://www.w3.org/2000/svg" xmlns:xlink="http://www.w3.org/1999/xlink" x="0px" y="0px" viewBox="0 0 400 300"
	 style="enable-background:new 0 0 400 300;" xml:space="preserve">
<path id="logo" d="M20.7,123.9v22.4h21.9v-22.4C42.6,123.9,20.7,123.9,20.7,123.9z M34.9,138.4h-6.5v-6.6h6.5V138.4z M67,153.4h9.9
	c3.7,0,5.5,1.6,5.5,4.7c0,3.9-2.9,4.9-6.2,4.9H67C67,163,67,153.4,67,153.4z M51.3,175.2h29c9,0,17.9-5.3,17.9-15.6
	c0-7.5-4.3-11.2-8.9-12.8c3.8-2.1,6.3-4.9,6.3-10c0-5.2-2.9-12.8-16.3-12.8h-28C51.3,124,51.3,175.2,51.3,175.2z M67,136.1h8.3
	c3.2,0,5.4,0.9,5.4,3.5c0,3.3-2.1,4.2-5.4,4.2H67V136.1z M113.3,152.4c0.6-4,3.1-6.2,7.3-6.2c3.7,0,6.2,2.8,6.2,6.2L113.3,152.4
	L113.3,152.4z M140.5,159.7c0-14.5-6.4-22.7-21.1-22.7c-11.8,0-19.6,8.8-19.6,19.6c0,12.4,9,19.4,20.9,19.4
	c8.5,0,16.3-3.7,19.1-11.8h-13.3c-1.1,1.8-3.7,2.7-6,2.7c-4.4,0-6.9-3-7.2-7.2L140.5,159.7L140.5,159.7z M158.3,126.6h-14.2v11.3
	h-6.3v8.7h6.3v17.8c0,10.2,6.7,11.1,12.7,11.1c3,0,6.2-0.4,9.1-0.4v-10.8c-1.1,0.2-2.2,0.2-3.2,0.2c-3.6,0-4.4-1.5-4.4-4.9v-13h7.6
	v-8.7h-7.6L158.3,126.6L158.3,126.6z M168.3,175.2h14.2v-19.6c0-6,3.2-7.2,5.7-7.2c4.2,0,4.7,3,4.7,7.3v19.5H207v-25.5
	c0-8.5-6.1-12.6-12.8-12.6c-6,0-9.2,2.1-11.6,4.9h-0.1v-18h-14.2L168.3,175.2L168.3,175.2z M222.4,152.4c0.6-4,3.1-6.2,7.3-6.2
	c3.7,0,6.2,2.8,6.2,6.2L222.4,152.4L222.4,152.4z M249.6,159.7c0-14.5-6.4-22.7-21.1-22.7c-11.8,0-19.6,8.8-19.6,19.6
	c0,12.4,9,19.4,20.9,19.4c8.4,0,16.3-4.4,19.1-12.4h-13.3c-1.1,1.8-3.7,3.3-6,3.3c-4.4,0-6.9-3-7.2-7.2L249.6,159.7L249.6,159.7z
	 M285.3,148.8c-0.4-9.5-10-11.8-18.1-11.8c-7.5,0-17.6,2.4-17.6,11.8c0,6.4,4.4,9.8,15.2,11.7c6.6,1.1,7.8,1.8,7.8,3.9
	c0,2.2-2.9,2.9-4.8,2.9c-1.7,0-3.1-0.4-3.8-1.1c-1.1-0.9-1.6-1.3-1.7-2.6h-13.5c0.2,9.6,9.8,12.4,18.6,12.4c9,0,18.9-2.8,18.9-13.1
	c0-6.1-4.2-8.9-8.9-10.4c-4.7-1.6-10.1-1.9-12.5-2.9c-0.8-0.4-1.6-0.9-1.6-1.9c0-2.4,2.3-2.9,4.3-2.9c1.1,0,2.3,0.4,3.1,1.1
	c0.9,0.6,1.6,1.6,1.7,2.8H285.3L285.3,148.8z M327.2,124H313V142h-0.1c-2.1-3.2-6-5-10.2-5c-12.5,0-15.8,10.6-15.8,19.4
	c0,9.3,5.1,19.7,15.6,19.7c7,0,9.1-2.7,10.9-5h0.1v4.1h13.7L327.2,124L327.2,124z M313.5,156.5c0,4.4-1.1,9.2-6.2,9.2
	c-5.1,0-6.2-4.8-6.2-9.2c0-4.4,1.1-9.2,6.2-9.2C312.3,147.3,313.5,152.1,313.5,156.5 M354,161.9c-0.2,3.9-2.7,5.8-6,5.8
	c-2.6,0-4.4-1.7-4.4-3.4c0-2.5,1.6-3.3,4.8-4c1.9-0.4,3.9-0.9,5.6-1.8L354,161.9L354,161.9z M367.6,151.6c0-7.2,0.1-14.6-17.6-14.6
	c-8.8,0-18.7,1.7-19.1,12.2H344c0.1-1.6,0.9-3.8,5.3-3.8c2.3,0,4.7,0.9,4.7,3.4c0,2.4-1.9,2.9-3.9,3.3c-7.2,1.4-21,0.9-21,12.7
	c0,7.8,5.9,11.3,13.1,11.3c4.6,0,9-1,12-4.4h0.1c-0.1,1,0.1,2.5,0.5,3.5h14.5c-1.6-2.4-1.7-5.5-1.7-8.3L367.6,151.6L367.6,151.6z
	 M371.7,143.7h-1.1v-4.4H369v-0.9h4.3v0.9h-1.6L371.7,143.7L371.7,143.7z M375,143.7h-1v-5.3h1.7l1,3.7l1-3.7h1.7v5.3h-1v-4.2
	l-1.2,4.2h-1l-1.1-4.2L375,143.7L375,143.7z"/>
</svg>
