<?xml version="1.0" encoding="utf-8"?>
<!-- Generator: Adobe Illustrator 23.0.3, SVG Export Plug-In . SVG Version: 6.00 Build 0)  -->
<svg version="1.1"
	 id="logosvg.com" xmlns:cc="http://creativecommons.org/ns#" xmlns:dc="http://purl.org/dc/elements/1.1/" xmlns:inkscape="http://www.inkscape.org/namespaces/inkscape" xmlns:rdf="http://www.w3.org/1999/02/22-rdf-syntax-ns#" xmlns:sodipodi="http://sodipodi.sourceforge.net/DTD/sodipodi-0.dtd" xmlns:svg="http://www.w3.org/2000/svg"
	 xmlns="http://www.w3.org/2000/svg" xmlns:xlink="http://www.w3.org/1999/xlink" x="0px" y="0px" viewBox="0 0 400 300"
	 style="enable-background:new 0 0 400 300;" xml:space="preserve">
<path id="logo" d="M93.013,149.021l-6.576,1.879c-0.783-2.662-2.74-4.228-5.324-4.228c-6.028,0-11.743,4.463-11.743,12.604v8.612
	h11.587v6.655H55.121v-6.655h7.359v-20.042h-5.793v-6.655h12.604v5.637c2.114-3.914,6.42-6.732,12.135-6.732
	C87.846,140.097,91.838,143.776,93.013,149.021z M48.387,161.626c0,8.299-6.42,12.918-16.911,12.918H9.399v-6.655h5.245v-32.098
	H9.399v-6.655H30.38c9.629,0,15.501,4.463,15.501,12.214c0,5.089-2.975,8.22-6.733,9.708
	C44.55,152.545,48.387,156.381,48.387,161.626z M21.846,148.161h7.829c5.872,0,8.925-2.193,8.925-6.185
	c0-4.072-3.131-6.185-9.003-6.185h-7.751C21.846,135.791,21.846,148.161,21.846,148.161z M41.106,161.234
	c0-4.305-3.68-6.654-10.882-6.654h-8.377v13.309h8.925C37.661,167.889,41.106,165.618,41.106,161.234z M162.537,124.361h-7.751
	v10.177h7.751V124.361z M128.715,167.889h4.854v6.655h-11.9v-3.523c-1.801,2.897-6.654,4.619-11.431,4.619
	c-6.89,0-12.84-3.522-12.84-10.49c0-8.22,8.064-11.352,15.423-11.352c3.602,0,6.577,0.705,8.848,1.331v-1.879
	c0-4.698-3.758-6.655-7.829-6.655c-3.836,0-7.124,1.566-9.787,3.992l-4.541-4.931c3.132-2.897,7.594-5.559,14.327-5.559
	c8.377,0,14.875,4.463,14.875,12.917v14.875H128.715z M121.669,161.078c-2.192-0.783-5.481-1.409-8.534-1.409
	c-4.385,0-8.612,1.409-8.612,5.402c0,2.974,2.661,4.384,6.341,4.384c5.089,0,10.804-2.741,10.804-7.438L121.669,161.078
	L121.669,161.078z M347.775,159.121v1.174h-28.732c1.174,5.559,5.793,8.925,11.821,8.925c5.011,0,9.316-2.035,11.665-4.619
	l4.619,4.854c-3.445,3.601-9.551,6.184-16.363,6.184c-11.195,0-19.024-7.516-19.024-17.771s7.594-17.771,18.163-17.771
	C340.416,140.097,347.775,148.161,347.775,159.121z M339.868,154.424c-1.018-4.776-5.245-7.986-9.942-7.986
	c-5.325,0-9.395,3.288-10.569,7.986L339.868,154.424L339.868,154.424z M295.79,140.097c-5.715,0-10.021,2.818-12.135,6.732v-5.637
	h-12.604v6.655h5.793v20.042h-7.359v6.655h25.836v-6.655h-11.587v-8.612c0-8.142,5.716-12.604,11.744-12.604
	c2.584,0,4.541,1.566,5.324,4.228l6.577-1.879C306.202,143.776,302.21,140.097,295.79,140.097z M390.601,160.295h-28.732
	c1.175,5.559,5.794,8.925,11.822,8.925c5.011,0,9.316-2.035,11.665-4.619l4.619,4.854l0,0c-3.445,3.601-9.551,6.184-16.363,6.184
	c-11.195,0-19.024-7.516-19.024-17.771s7.594-17.771,18.163-17.771c10.491,0,17.85,8.064,17.85,19.024V160.295z M382.694,154.424
	c-1.018-4.776-5.245-7.986-9.943-7.986c-5.323,0-9.394,3.288-10.569,7.986L382.694,154.424L382.694,154.424z M248.971,169.142
	c-4.149,0-7.751-2.113-7.751-7.281v-14.013h16.206v-6.655H241.22v-12.057h-6.889v12.057h-8.69v6.655h8.69v14.249
	c0,8.925,6.263,13.543,14.64,13.543c6.498,0,11.196-3.053,14.249-6.341l-4.619-4.775
	C256.174,166.95,252.886,169.142,248.971,169.142z M162.537,141.192H145v6.655h10.647v20.042h-13.936v6.655h33.665v-6.655h-12.84
	L162.537,141.192L162.537,141.192z M219.768,152.388c0-7.594-5.324-12.291-12.761-12.291c-5.167,0-9.394,2.114-11.43,5.401v-4.306
	H183.99v6.655h4.776v20.042h-5.088v6.655h17.301v-6.655h-5.323v-11.117c0-6.028,5.244-9.943,10.491-9.943
	c3.21,0,6.733,1.645,6.733,7.438v13.623h-5.324v6.655h17.302v-6.655h-5.089L219.768,152.388L219.768,152.388z"/>
</svg>
