<?xml version="1.0" encoding="utf-8"?>
<!-- Generator: Adobe Illustrator 23.0.3, SVG Export Plug-In . SVG Version: 6.00 Build 0)  -->
<svg version="1.1" id="logosvg.com" xmlns="http://www.w3.org/2000/svg" xmlns:xlink="http://www.w3.org/1999/xlink" x="0px"
	 y="0px" viewBox="0 0 400 300" style="enable-background:new 0 0 400 300;" xml:space="preserve">
<path id="logo" d="M261.3,213.4l-7.7-8.1c-2.4-2.5-2.8-6.8-1-9.7c9.7-14.8,23.1-35.4,23.1-35.4l0,0l1.7-2.6c3.7-5.7,2.8-14.7-2-20.2
	l-6.3-7.2c-2.4-2.7-5.4-4.3-8.4-4.3c-3.1-0.1-5.9,1.4-7.8,4.1L226,167.2c-0.9,1.3-2.4,2.2-4,2.3c-1.7,0-3.3-0.7-4.4-1.9l-9.4-9.8
	c-2.7-2.8-3-7.4-0.9-10.2l28.3-37c2.1-2.7,3-6.3,2.6-10.3c-0.4-3.9-1.9-7.7-4.5-10.7l-6.9-7.9c-2.6-3-5.9-4.8-9.4-5.2
	c-3.4-0.4-6.7,1-8.9,3.6l-3.3,3.8l-8.3,9.8l-19.3,22.7c-2.4,2.8-6.7,2.7-9.5-0.3l-9.5-9.9c-1.4-1.5-2.3-3.4-2.4-5.4
	c-0.2-1.9,0.4-3.8,1.6-5.2l31.8-35L201,48.5c1.5-1.7,3.4-3.1,5.4-4.1c-0.1,0-0.1,0.1-0.2,0.1c-0.6,0.3-1.1,0.6-1.6,0.9l0,0l0,0
	c-7.1,4.9-42.5,29.2-53.5,36.8c-0.5,0.3-0.9,0.7-1.4,1c-1,0.7-1.9,1.5-2.7,2.3l-9.6,10.1L110.5,124c-1,1.1-1.5,2.6-1.4,4.1
	c0.1,1.6,0.8,3,1.9,4.1l7.6,7.4c1.6,1.7,4.2,2.2,6.3,1.2c1.4-0.5,8-3.5,16.1-7.1l-19.3,21.8c-8.7,9.8-7.7,25.5,2.1,34.6l20.9,19.4
	c3.3,3.1,7.6,5,12.1,5.5c0.4,0,1.7,0.1,1.9,0.1h105.1c0.5,0,1,0,1.4,0C263.7,215,262.2,214.4,261.3,213.4 M247.4,189.8l-9.5,14.2
	c-4.1,6.1-10.1,10-16.9,10.7c-6.9,0.8-13.8-1.8-19.3-7.2l-26.1-25.6c-12.3-12.1-13.8-32.7-3.4-45.2l30.6-36.7l11.4-13.7
	c1-1.2,2.5-1.8,4-1.7c1.7,0.2,3.2,1,4.3,2.3l7,7.9c1.2,1.4,1.9,3.1,2.1,4.9c0.2,1.7-0.2,3.3-1.2,4.7l-28.9,36.9
	c-4.9,6.3-4.1,16.5,1.9,22.7l9.5,9.8c2.8,2.9,6.3,4.3,9.8,4.1s6.6-2,8.8-5.1l26.4-37.4c0.8-1.2,2.1-1.9,3.5-1.9
	c1.5,0.1,2.9,0.8,3.9,1.9l6.3,7.2c2.2,2.5,2.6,6.7,0.9,9.2L247.4,189.8L247.4,189.8 M50.9,246.2c0,1.8,0,1.8-1.4,2
	c-0.7,0.1-4.3,0.3-6.4,0.3c-2.7,0-5.5-0.1-6.8-0.2s-1.4-0.4-1.5-1.1c-0.1-0.9-0.3-4-0.3-5.7c0-4.2,0.6-4.9,0.6-4.9
	c0.3-0.2,1.8-0.6,8.3-0.6c5,0,6.5,0.4,6.8,0.5c0.5,0.2,0.6,0.2,0.7,1.8v2.1h5.4V239c-0.1-3.4-0.2-4.6-1.6-5.9
	c-1.7-1.6-4.1-2.1-11.1-2.1c-1.7,0-4.6,0.1-5.9,0.2c-3.1,0.2-4.8,0.4-6.2,1.5c-2.1,1.6-2.5,4.8-2.5,10.1s0.5,7.8,2.1,9.2
	c1.8,1.7,4.6,2,12.9,2c6.6,0,9-0.3,10.7-1.8c1.5-1.3,1.6-2.7,1.7-6.5l0.1-1.4H51L50.9,246.2z M83.4,237c0.2,1.8,0.3,3.5,0.3,5.3
	c0,1.6-0.1,3.2-0.3,4.8c-0.1,0.7-0.4,0.9-1.1,1c-2.4,0.3-4.8,0.4-7.3,0.4c-1.4,0-4.9-0.1-6-0.2c-1.8-0.1-2.6-0.3-2.9-0.5
	c-0.4-0.4-0.5-2.4-0.5-6c0-4.4,0.5-5.2,0.6-5.4c0.8-0.7,5.8-0.7,7.4-0.7c5.4,0,6.9,0.1,8.5,0.3C83.2,236.2,83.3,236.6,83.4,237
	 M87.1,232.6c-1.8-1.7-4.5-2-11.9-2c-1.9,0-5.6,0.1-6.9,0.2c-2.8,0.2-4.3,0.4-5.8,1.5c-2.2,1.6-2.6,4.6-2.6,9.8
	c0,3.5,0.1,5.4,0.5,6.8c0.6,2.2,2.3,3.8,4.5,4.3c1.7,0.3,5.2,0.5,11.2,0.5c7,0,9.5-0.4,11.1-2c1.5-1.5,2-4,2-9.3
	c0-1.6-0.1-3.7-0.2-4.7C88.8,235.4,88.4,233.8,87.1,232.6 M99.1,235.8h10.4c2.3,0,3.2,0,3.8,0c1.9,0.1,2.4,0.5,2.7,0.8
	c0.3,0.3,1,1.5,1,5.4c0,5.7-1.4,6.1-2.2,6.2c-1,0.2-1,0.2-5.1,0.2H99.1V235.8z M109.6,230.7h-16v22.8h16.3c6.1,0,8.1-0.3,10.1-2
	s2.7-4.5,2.7-9.4c0-4.5-0.3-7.1-2.2-9.1C118.3,231,116.1,230.7,109.6,230.7 M132.3,244.3h17.2v-5.1h-17.2v-3.4h18v-5.1h-23.6v22.8
	h23.6v-5.1h-18C132.3,248.5,132.3,244.3,132.3,244.3z M172.6,246.7l-10.8-16H154v22.8h5.6v-16.4l11.2,16.4h3.7l11-16.2v16.2h5.6
	v-22.8h-7.8L172.6,246.7z M205.1,244.2l4.9-8.1l4.8,8.1H205.1z M206.9,230.7l-13.7,22.8h6.4l2.5-4.2h15.6l2.5,4.2h6.3L213,230.7
	H206.9z M246.2,239.7H239c-1.6,0-3.2-0.1-4.8-0.4c-0.7-0.2-0.8-0.2-0.8-1.5s0-2.1,8.3-2.1c3.5,0,4.9,0.3,5.3,0.4
	c0.8,0.3,0.8,0.3,0.8,1.9h5.6c0-2.6-0.4-4.2-2.1-5.5c-1.8-1.3-4.3-1.8-9.4-1.8c-1.9,0-4.9,0.1-6.6,0.3c-2.4,0.3-3.9,0.6-5.3,1.7
	c-1,0.7-2.1,2.2-2.1,5c0,6.1,4.6,7,9,7c10,0,10.2,0,11,0.3c0.3,0.1,0.6,0.2,0.6,1.6s-0.6,1.6-1,1.7c-1.1,0.2-3.8,0.4-6.5,0.4
	c-5.6,0-6.9-0.3-7.5-0.5c-0.1-0.2-0.2-0.8-0.2-2.2l-5.5-0.1c0,0.4,0,1,0,1c0,2.5,0.4,4.3,2.6,5.6c1.6,0.9,3.5,1.2,8.7,1.2
	c6.7,0,9.8-0.3,11.7-1.2c2.2-1,3.3-3,3.3-6.1c0-1.8-0.4-3.2-1.2-4.3C251.4,240.1,249.2,239.7,246.2,239.7 M256.6,235.8h10.7v17.7
	h5.6v-17.7h10.6v-5.1h-26.9L256.6,235.8L256.6,235.8z M292.4,244.3h17.2v-5.1h-17.2v-3.4h18v-5.1h-23.5v22.8h23.6v-5.1h-18
	L292.4,244.3L292.4,244.3z M319.6,235.8h9.1c4.6,0,6,0.1,6.5,0.5c0.1,0.1,0.4,0.6,0.4,1.8c0,0.7-0.1,1.3-0.3,2
	c-0.3,0.4-1.6,0.7-4.1,0.7h-11.6V235.8z M340.4,233.9c-0.9-1.6-2.6-2.7-4.7-2.9c-1.5-0.2-1.6-0.2-7-0.3h-14.6v22.8h5.6v-7.7h9.1
	c4.5,0,4.5,0,5.4,0.2c0.8,0.1,1,0.5,1.1,1.1c0.1,0.7,0.1,0.8,0.1,3.2v3.3h5.6v-4.2c0-3.3-0.1-4.5-1.3-5.7c1.4-1.1,1.7-2.9,1.7-5.4
	C341.3,236.3,341,235.1,340.4,233.9 M370,242.1c-1.5-2-3.6-2.4-6.6-2.4h-7.2c-2.8,0-4.2-0.2-4.8-0.4c-0.8-0.2-0.8-0.2-0.8-1.5
	c0-1.4,0-2.1,8.3-2.1c3.4,0,4.8,0.3,5.3,0.4c0.8,0.3,0.8,0.3,0.8,1.9h5.6c0-2.6-0.4-4.2-2.1-5.5c-1.8-1.3-4.3-1.8-9.4-1.8
	c-1.9,0-4.9,0.1-6.6,0.3c-2.4,0.3-3.9,0.6-5.3,1.7c-1,0.7-2.1,2.2-2.1,5c0,6.1,4.6,7,9,7c10,0,10.2,0,11,0.3
	c0.3,0.1,0.6,0.2,0.6,1.6s-0.6,1.6-1,1.7c-2.2,0.3-4.3,0.5-6.5,0.4c-5.6,0-6.9-0.3-7.4-0.5c-0.1-0.2-0.2-0.8-0.2-2.2h-5.5
	c0,0.4,0,0.8,0,0.9c0,2.5,0.4,4.3,2.6,5.6c1.6,0.9,3.6,1.2,8.7,1.2c6.7,0,9.8-0.3,11.7-1.2c2.2-1.1,3.3-3.1,3.3-6.1
	C371.2,244.5,370.8,243.2,370,242.1"/>
</svg>
