<?xml version="1.0" encoding="utf-8"?>
<!-- Generator: Adobe Illustrator 23.0.3, SVG Export Plug-In . SVG Version: 6.00 Build 0)  -->
<svg version="1.1"
	 id="logosvg.com" xmlns:cc="http://creativecommons.org/ns#" xmlns:dc="http://purl.org/dc/elements/1.1/" xmlns:rdf="http://www.w3.org/1999/02/22-rdf-syntax-ns#" xmlns:svg="http://www.w3.org/2000/svg"
	 xmlns="http://www.w3.org/2000/svg" xmlns:xlink="http://www.w3.org/1999/xlink" x="0px" y="0px" viewBox="0 0 400 300"
	 style="enable-background:new 0 0 400 300;" xml:space="preserve">
<path id="logo" d="M155.2,168h87.2c0-0.3,0-0.5,0-0.8c0-13.3,10.8-24.1,24.1-24.1c0.3,0,0.7,0,1,0V55.8c0-15.1-12.3-27.5-27.5-27.5
	h-84.8c-15.2,0-27.5,12.3-27.5,27.5v84.7C127.7,155.6,140,168,155.2,168z M140.9,55.8c0-7.8,6.4-14.2,14.2-14.2H240
	c7.9,0,14.2,6.4,14.2,14.2v73.4c-2.1,0.6-4.1,1.4-6.1,2.4c-0.1,0.1-0.2,0.1-0.4,0.2l-0.5-0.2l-13.5-5.8c0,0-0.2-0.1-0.4-0.2
	c-0.2,0-0.4,0-0.5,0.1c-2.9,2.3-5.5,4.9-7.8,7.8c-0.1,0.2-0.3,0.3-0.3,0.6c0,0.3,0.1,0.4,0.1,0.4l5.9,13.5l0.3,0.6
	c-0.1,0.2-0.2,0.4-0.3,0.6c-0.9,1.8-1.6,3.7-2.2,5.6h-73.4c-7.8,0-14.2-6.4-14.2-14.2V55.8z M147.1,111.6c0.3,0.1,0.5,0.2,0.5,0.2
	l14.6,3.8c0,0,0.3,0.1,0.5,0.2c0.2,0.1,0.4,0.5,0.4,0.5c1.4,2.8,3,5.3,5,7.7c0.1,0.1,0.1,0.3,0.2,0.4c0,0.3,0,0.5,0,0.5l-2.7,14.6
	c0,0-0.1,0.3,0,0.5c0.1,0.2,0.2,0.3,0.3,0.4c3,2.4,6.2,4.4,9.7,6.1c0.1,0.1,0.2,0.1,0.4,0c0.3-0.1,0.4-0.2,0.4-0.2l12.1-8.9
	c0,0,0.2-0.2,0.4-0.3c0.2-0.1,0.3-0.1,0.6,0c0.2,0,3.1,0.6,4.7,0.8c1.5,0.1,4.1,0.2,4.3,0.2c0.2,0,0.5,0,0.8,0
	c0.2,0.1,0.5,0.4,0.5,0.4l9.8,11.2c0,0,0.2,0.3,0.4,0.3c0.2,0.1,0.3,0.1,0.5,0c3.7-0.9,7.3-2.2,10.8-3.8c0.1-0.1,0.2-0.1,0.3-0.4
	c0.1-0.3,0.1-0.5,0.1-0.5l0.5-15c0,0,0-0.4,0.1-0.6c0.1-0.2,0.3-0.4,0.4-0.4c2.6-2,4.8-4.3,6.6-6.7c0.2-0.2,0.2-0.3,0.6-0.4
	c0.3-0.1,0.8-0.2,0.8-0.2l14.8-0.9c0,0,0.3,0,0.5-0.1c0.2-0.1,0.2-0.2,0.3-0.4c1.6-3.5,2.7-7.1,3.5-10.9c0-0.1,0-0.3-0.1-0.4v0
	c-0.2-0.2-0.3-0.4-0.3-0.4l-11.6-9.6c0,0-0.2-0.2-0.4-0.4c-0.1-0.2-0.1-0.3-0.1-0.5c0-3.1-0.5-6-1.2-8.9c0,0,0,0,0,0
	c0-0.1-0.1-0.2-0.1-0.3c0-0.1,0-0.2,0-0.4c0.1-0.3,0.4-0.7,0.4-0.7l8.6-12.1c0,0,0.2-0.2,0.2-0.5c0-0.2,0-0.4-0.1-0.5
	c-1.7-3.4-3.8-6.6-6.3-9.5c-0.1-0.1-0.2-0.2-0.4-0.2c-0.3,0-0.5,0-0.5,0l-14.8,3c0,0-0.3,0.1-0.5,0.1c-0.2,0-0.3-0.1-0.5-0.2
	c0,0,0,0,0,0c-2.4-1.8-4.9-3.4-7.7-4.7c0,0,0,0,0,0c-0.1-0.1-0.2-0.1-0.3-0.2c-0.1,0-0.2-0.1-0.3-0.2c-0.2-0.3-0.3-0.7-0.3-0.7
	l-4.1-14.3c0,0-0.1-0.3-0.2-0.5c-0.2-0.2-0.3-0.2-0.4-0.2c-3.7-0.8-7.5-1.1-11.4-1.1c-0.1,0-0.3,0-0.4,0.2c-0.2,0.2-0.3,0.4-0.3,0.4
	l-6.8,13.4c0,0-0.1,0.3-0.3,0.4c-0.1,0.1-0.2,0.1-0.4,0.1c-3.1,0.7-6,1.8-8.8,3.2c-0.1,0-0.1,0-0.2,0c-0.3,0-0.8-0.2-0.8-0.2
	l-13.7-5.7c0,0-0.3-0.2-0.5-0.1c-0.2,0-0.3,0.1-0.5,0.2c-2.9,2.4-5.6,5.2-8,8.2c-0.1,0.1-0.1,0.2-0.1,0.4c0,0.3,0.1,0.5,0.1,0.5
	l6.2,13.8c0,0,0.1,0.3,0.2,0.5c0,0.1,0,0.1,0,0.1c-1.4,3-2.6,6.2-3.2,9.6v0c-0.2,0.3-0.7,0.5-0.7,0.5l-13,7.1c0,0-0.3,0.1-0.4,0.3
	c-0.1,0.2-0.1,0.3-0.1,0.5c0,3.8,0.5,7.6,1.4,11.3C146.9,111.4,146.9,111.6,147.1,111.6z M175.9,97.2c1.2-12.1,12.1-21,24.2-19.8
	c12.2,1.2,21,12.1,19.8,24.2c-1.2,12.1-12.1,21-24.2,19.8C183.6,120.2,174.7,109.3,175.9,97.2z M357.9,267.4
	c-0.9,0.5-2.1,0.7-3.3,0.7c-1.6,0-2.9-0.5-4-1.5c-0.9-1-1.5-2.2-1.5-3.8v-0.5h8.7h4.1v-0.7c0-2.4-0.7-4.5-2.1-5.8
	c-0.6-0.5-1.2-1.1-2-1.4c-1-0.4-2.3-0.6-3.8-0.6c-2.4,0-4.3,0.6-5.8,2.1c-1.3,1.5-2,3.4-2,5.9c0,2.7,0.7,4.8,2,6.2
	c1.4,1.4,3.4,2,6,2c1.3,0,2.5-0.1,3.5-0.4c0.5-0.2,0.8-0.3,1.2-0.4c1.4-0.6,2.4-1.6,3.2-2.7l-2-1.1
	C359.7,266.2,358.9,266.8,357.9,267.4z M350.7,256.7c0.9-0.8,2-1.3,3.6-1.3c1.4,0,2.7,0.6,3.5,1.5c0.8,0.8,1.2,2,1.2,3.4h-1.1h-8.6
	C349.3,258.8,349.9,257.6,350.7,256.7z M372.7,239.2c-0.1,0.5-0.5,2.6-0.8,2.9c-0.5,0.5-1,0.8-1.6,1.1c-1,0.5-2.1,0.2-3.3,0.5
	c-0.4,0.1-0.7-0.2-1.1-0.2c-0.9,0-1.8,0.5-2.6,0.2c-1.3-0.2-2.4-0.6-3.8-0.9H359c-1.8-0.2-3.6,0-5.4,0c-0.2,0.1-0.4,0.2-0.5,0.2
	c-1.2,0.1-2.4,0.4-3.5-0.1c-1.4-0.5-1.4-0.7-1.4-1.2c-0.2-0.8-0.3-2.5,0.1-3.5c0.2-0.5,1.5-0.2,2-0.6c0.6-0.4,1.6,0.2,2.3-0.4
	c0.4-0.3-0.8-0.7-0.5-1.3c0.2-0.3-0.7-1.5-0.7-2c0-0.1-1.9-2.5-1.9-2.8c-0.1-0.5-1.3-1.7-1.9-2.5l-0.4-0.3c-0.9-0.5-3.5-4.9-4.3-5.1
	c-0.2,0-0.4,0.1-0.6,0.3c-0.4,0.2,0,0-0.4,0.4c-0.4,0.7-0.7,1.7-1.1,2.4c-0.4,0.7-0.7,1.2-1.3,1.7c-0.4,0.5-0.5,0.6-0.8,1.1
	c-0.4,0.6-1.1,1.4-1.5,2.1c-1.1,1.7-1.9,1.7-2.5,2.7c-0.4,0.7-0.5,1-1,1.5c-0.1,0.2-0.1,1.1,0.1,1.3c1,1.1,1.7-0.3,3.3,1.9
	c0.3,0.5,0.4,1.3,0.5,1.9c0.1,0.4,0.2,1-0.1,1.4c-0.3,0.5-0.7,1.1-1.4,1.1c-4.4,0.6-5.9,0.4-9.4,0.6c-0.4,0.1-0.7-0.3-1.1-0.4
	c-1.1-0.1-1.1,0.2-2.9,0.4c-0.4,0.1-1-0.3-1.5-0.4c-1.7-0.1-2.5,0.4-4.2-0.1c-0.1,0.1-1-0.5-1.7-1.1l-0.8-0.5
	c-0.3-0.4-0.5-2.4-0.4-3.1c0-0.3,0.3-1,0.6-1.4c0.2-0.2,0.6-0.4,1-0.5c0,0,0,0,0,0h0.5h0c0.9,0,1.7,0,2.7,0c1.1,0,1.6,0,2.8-0.6
	c1.7-0.8,2.2-0.3,3-1.1c0.8-0.8,1.6-1.6,2.3-2.5c1-1.2,1.8-2.9,3-4.3c1.1-1.1,1-1.1,2.3-2.3c0.3-0.3,0.9-0.8,1.3-1.3
	c0.4-0.4,1-0.8,1.3-1.3c0.3-0.3,0.3-0.8,0.5-1.2c0.3-0.4,0.9-0.8,1.2-1.3c0.3-0.2,0.8-0.9,0.9-1.3c0.1-1.7,0.6-1,0.1-2.8
	c-0.3-0.7-1-2.2-1.8-3.2c-0.5-0.2-4.1-4.1-4.5-4.7c-0.3-0.2-0.1-0.6-0.3-1c-0.5-0.5-0.8-0.8-1.3-1.7c-0.6-1-0.3-0.1-0.8-1.2
	c-0.2-0.3-0.1-1.4-0.5-1.6c-2-0.8-1.8-0.8-1.7-0.7c0,0,0,0-0.1,0c-1.2-0.2-1.8,0.2-3.1,0.2c-0.6,0-1.5,0.2-2.1-0.1
	c-1.1-0.3-2.2-0.5-3.2-1.2c-0.3-0.2-0.4-0.4-0.6-0.8c-0.2-0.3-0.2-0.7-0.1-1.2c0-0.3,0.4-2,0.8-2.1c0.6-0.2,1.6-0.7,2.3-1.1
	c0.3-0.1,0.2,0.4,1.8-0.4c0.3-0.1,0.7-0.2,1.1-0.2c4.4,0,3.5,0.4,6.4,0.1c0.7,0,2.2-0.5,3-0.6c1.6,0,2.2-0.3,4.4,0.4
	c1.2,0.4,2,0.7,2.3,1c0.3,0.6,1.1,1.6,0.7,3.5c-0.2,0.7-3,1.4-3.2,2.1c-0.5,2.7,0.2,1.6,0.8,3.3c0.3,1.2,1.1,1.5,3,4.7
	c0.4,0.8,0.7,1.8,1.7,1.8c1,0.1,1.7-1.8,2.5-2.3c2.3-1.4,1.5-2,1.6-2.7c0.5-1.3,2-3.1,2.2-3.9c0.1-0.2,0.2-1.7,0.4-2.1
	c0.2-0.6-2.2-0.6-2.2-1.4c-0.1-2.4,0.1-1.7,0.6-3.3c0.1-0.5,0.8-0.5,1.4-0.8c0.3-0.1,0.7-0.1,1.1,0c0.3,0.1,0.3-0.2,0.7-0.2
	c1.6,0.6,3.5,0.8,4.8,0.4c1.2-0.2,2.3-0.3,2.9-0.4c0.5-0.1,1.1-0.1,1.7,0h0.7c0.2,0.1,0.4,0.3,0.7,0.3c2.4,0.2,4.7-0.1,7.2,0.1
	c0.4,0.1,0.9,0.3,1.3,0.6c1,0.8,1.5,2.3,1.6,2.8c0.1,0.4,0.1,0.8-0.1,1c-0.2,0.3-0.7,1.3-1.2,1.5c-1.1,0.7-2.8,0.3-4.1,0.5
	c-5.3,0.7-4.7,0.5-5.5,0.8c-0.1,0.1-0.2,0.1-0.3,0.2c-1.8,0.9-1.3,2.1-2.7,3.3c-0.2,0.2-0.2,0.6-0.6,0.8c-0.5,0.5-1.3,0.6-1.9,1.1
	c-0.7,0.6-1.4,1.3-1.9,2.1c-0.4,0.7-0.8,1.7-1.3,2.2c-1.4,1.6-1.5,1.5-2.2,2.1c-0.8,0.7-0.5,1.1-1.3,1.8c-0.2,0.2-0.5,0.7-0.6,1.1
	c-0.1,0.6-0.4,1-0.2,1.7c0.2,0.7,1,1.3,1.6,1.8c0.5,0.5,0.8,0.8,1.4,1.3c0.3,0.2,0.2,0.7,0.4,0.9c0.7,1.1,1.7,1.9,2.4,3
	c1.9,1.7,3.1,4.1,3.5,5c0.3,0.7,1.6,2.1,2.1,2.7c0.2,0.4,0.9,1,1.1,1.4c0.6,0.7,1.1,0.9,2.1,1.1c2.6,0.8,4.1,0.3,7.7,0.6
	c0.7,0.1,1.4,0.3,2.1,0.5c0.2,0.2,0.5,0.4,0.6,0.7C372.7,238.2,372.7,238.7,372.7,239.2z M325.1,253.8l0.1,2.1h-0.5
	c-1.3,0-2.6,0.4-3.6,1.3c-1,0.9-1.8,2.1-2.5,3.7v8.8h-2.4h-0.5v-15.8h0.5h2.4v3.6c0.7-1.3,1.6-2.2,2.5-2.9c0.9-0.6,2-0.9,3.4-0.9
	h0.3H325.1z M317.4,227.2c-0.1-1,0-3.2,0.1-3.4c0-0.5,0.5-7.1,0.7-7.4c-0.3-0.5-1.2-4.7-1.2-5.5c-0.9-1-0.9-2.9-1.9-3.8
	c0.1-0.1-1.2-2-1.2-2.1c0.1-0.2-2-3.1-2.4-3.8c-0.4-0.6-2.7-2.4-2.8-2.4c-1.2-1.2-6-2.9-6.2-3.2c-0.7,0-4.1-0.7-4.9-1.2
	c-0.9-0.1-6.6,0.2-6.9,0.3c-0.6-0.4-5.4,1.4-6.5,2c-0.1,0-1,0.3-1.1,0.4c-0.6,0.5-4.7,2.6-5.1,3.3c-0.7,0.2-3.8,3.7-3.9,4.1
	c-0.2,0-1,1.7-1.5,2.3c-0.1,0-0.5,1.2-0.5,1.5c0,0.2-0.1,0.5-0.1,0.9c0,0.1-1,3-0.9,3.6c-0.5,2.2-0.3,6.8-0.3,7
	c-0.2,1.2,0.4,4.5,0.3,4.7c-0.3,1.1,0.4,4.4,0.9,5.1c0,0.3,0.5,2.4,1.1,3c0,0.1,1.4,2,1.4,2.3c-0.1,0.1,1,1.6,1.4,2.5
	c0.7,0.5,4.7,3.5,4.8,3.6c0.9,0.2,5.1,2.2,6.8,2.2c0.6,0.2,2.3,0.4,2.8,0.4c0.9-0.2,1.7,0.1,2.5,0.1c1.3,0,2.5-0.1,3.8-0.1
	c0.2,0,4.3-0.9,4.4-0.9c0.8-0.1,4.8-1.7,5-1.8c0.3-0.5,2.9-1.2,3.2-1.8c0.1,0,4.3-4.2,4.3-4c0.8-0.3,2.4-3.7,2.7-4
	C315.7,230.3,317.2,227.4,317.4,227.2z M308.1,224.3c-0.1,1.1-0.4,1.3-1.1,3.5c-0.1,0.7-1,1.7-1,1.8c-0.4,0.6-2,2.6-3.2,3.3
	c-0.6,0.4-4.7,2-6.4,2.4c-0.5,0.1-2.3,0.5-3.1,0.5c-2.2-0.1-5.7-1-5.9-1.1c-0.6-0.1-2.4-2.1-3.2-2.3c-1-0.3-1.1-1-2-1.6
	c-0.4-0.5-1.4-1.8-1.2-3.1c-0.1-0.6-0.8-1.6-0.7-2.7c-0.1-0.7-0.4-2.9-0.8-4.1c-0.5-2.9,0.3-5.8,0.3-6.1c0-0.6,1.5-3.5,2-4.7
	c0.4-1.1,3-4.2,3.9-4.5c0.8-0.4,4.6-2.7,7-3c1.4-0.2,2.8-0.4,3.8-0.1c1,0.1,3.3,1,4.2,1.6c0.4,0.2,2.7,1.7,3.8,2.8
	c0.4,0.4,0.7,1,1,1.4c0.5,0.6,1.7,3.9,2,5.7c0.2,0.4,0.3,2.7,0.6,3.6C308.3,218.8,308.3,221.5,308.1,224.3z M290,267.2v-8.8
	c0-1.5-0.6-2.7-1.7-3.5c-1.3-0.9-2.8-1.2-5-1.2h-0.8c-1.4,0-2.6,0.3-3.7,0.9c-1.2,0.5-2.2,1.4-2.9,2.4l2.4,1.1
	c0.6-0.9,1.1-1.5,2-1.9c0.7-0.3,1.4-0.6,2.2-0.6h0.7c1.2,0,2.1,0.3,2.9,0.8c0.8,0.4,1.1,1.1,1.1,1.8v1.2c-1.7,0.2-3.3,0.5-4.6,0.9
	c-1.9,0.4-3.5,1-4.6,1.6c-1.8,1-2.7,2.3-2.7,3.9c0,1.3,0.5,2.3,1.5,3.2c1,0.7,2.4,1.2,4.1,1.2c0.6,0,1.3,0,1.8-0.1
	c0.6-0.1,1-0.2,1.6-0.4c1-0.4,2-1.1,2.9-1.8l0.3,2.1h3.1v-0.2c-0.1-0.4-0.2-0.7-0.3-1.2C290.1,267.9,290,267.6,290,267.2z
	 M287.1,265.6c-1.1,0.8-2.3,1.4-3.3,1.8c-0.4,0.2-0.9,0.3-1.4,0.4c-0.4,0.1-0.9,0.2-1.4,0.2c-1,0-1.8-0.2-2.4-0.6
	c-0.6-0.4-0.9-1-0.9-1.7c0-1.1,0.7-2,2.1-2.7c0.7-0.3,1.5-0.6,2.5-0.8c1.3-0.3,2.8-0.7,4.6-1V265.6z M267.8,215.3
	c-0.1-0.6-0.3-2.6-0.6-3.7c-0.3-0.8-1.8-2.5-1.8-2.9c0.1,0-1.1-2-1.6-3c-0.5-0.3-1.1-1.9-1.5-2.1c-0.5-1.7-1.6-2.7-3-3.5
	c-0.2-0.1-1-0.6-1.3-1c-0.2,0.2-2.9-1.4-2.9-1.5c-0.7-0.1-4.5-1.1-5.5-1.2c-1.3-0.1-2.2-0.6-3.2-0.4c-0.1-0.1-2.6-0.2-2.8-0.3
	c-0.7,0.5-1.6,0.3-2.4,0.1c-1.1,0.2-2,0.5-3,0.5c-0.7,0.5-2.4,1.1-2.6,1.1c-0.1,0.2-1,1.1-1.6,1.1c-0.3-0.4-0.6,0-1,0
	c-0.1-0.8-0.3-1.5-0.4-2.4c0-0.1-0.1-5.1,0.2-7.3c-0.4-2.4-0.4-4.7-0.5-6.9c0.2-0.3,0.1-1.4,0-1.4c-0.4-0.6-0.9-1.1-1.4-1.5
	c-1.1-0.1-1.9-1.1-3.2-1c-0.9,0.1-2.2,0.1-3.1,0h-2.9c-1.3,0.1-2.4-0.3-3.7-0.3c-0.8,0-1.7,0.1-2.5,0.1c-1,0-1.5,0.3-2.2,0.5
	c-0.2,0-1.1,0.3-1,0.7c-0.1,0.1-0.3,2.1-0.3,3.3c-0.2,0.6,0,0.8,0,1.6c0.1,0.1,0.2,0.5,0.3,0.6c0.3,0.8,1,0.8,1.8,1.1
	c0.1,0.2,1.9,0.6,2.7,0.3c0.2,0.2,0.8,0.1,0.9,0.1c0.6,0.2,4.1,0,4.2,0.3c1.1-0.2,0.9,0.9,0.9,1.5c-0.2,0.7,0.1,1.4,0.3,2
	c0.2,0.7,0.5,1.3,0.4,2.2c0,0.5,0,0.8,0,1.3c0.1,0.8-0.2,1.3-0.4,2.1c-0.2,1.2,0.4,2.5,0.2,3.5c-0.1,0.6,0.3,3.4,0,4.1
	c0.4,0.9-0.3,1.8-0.2,2.7c0,0.4,0.5,4.4,0.4,5.3c0,0.5,0,1,0,1.5c0,0.4,0,1.3,0,1.4c0,0.6-0.4,1-0.4,1.6c0,1-0.1,4.7,0,5.7
	c0.1,0.9,0.2,1.4,0.1,2.1c-0.1,1,0,4.4-0.1,5c0,0.3,0.1,0.6,0.1,1c0,0.5-0.2,1.1-0.1,1.6c0.1,0.9,0.1,1.9,0.1,2.7
	c0,0.3,0.4,1.9,0.3,2.6c-0.1,1.2,0,2.7-0.2,4c0.6,1.5,2,2.8,4,3c1.5,0.1,3.8-0.9,4-1c1-0.8,0.8-2.6,1.6-3.4c0.2,0.1,0.2,0.3,0.3,0.4
	c0.4,0.1,0.9,0.3,1.4,0.6c0.2,0.1,1.4,0.4,2,0.6c0.2,0.3,2,0.8,2.5,0.7c0.2,0.2,7.2,1.7,8.2,1.4c0.3,0.5,9-1.5,9.4-1.6
	c0.3-0.1,2.3-1.1,2.8-1.5c0.2-0.4,0.9-1.1,1.4-1.4c0.5-0.3,1.1-0.8,1.5-1.5c0.6-0.7,1.5-1.5,2.3-3.2c0.1-0.5,0.7-1.1,1.1-2
	c0.3-0.7,1.8-4.6,1.8-6.1c-0.1-0.6-0.2-1.3-0.2-1.8c0.1-1.1,0.2-2.8,0.2-3.5C267.9,218.3,267.7,216.7,267.8,215.3z M259.4,220.4
	c-0.1,1-0.2,1.8-0.4,2.8c0.5,1.2-0.6,4.1-0.8,4.7c-0.1,0.3-1.2,2.3-1.6,3c-0.2,0.4-0.7,0.6-1,0.8c-0.6,0.5-1.9,1.6-1.9,1.7
	c-1.6,1-3.6,1.3-5.6,1.7c-0.2,0-2.3,0-2.4,0c-0.2,0-5.7-0.8-6.1-1c-0.1-0.1-1.2-0.4-1.4-0.6c-0.1-0.1-0.6-0.4-0.6-0.4
	c-0.3-0.3-1.2-1.3-1.6-1.3c-0.4-0.7-0.6-1.5-1.1-2.1c-0.2-0.2-0.9-1.8-1.4-2.2c0.3-1.2-1.1-5.3-1-6.6c0.1-0.8,0.1-1.9,0.1-2.7
	c0-0.5-0.2-0.9-0.1-1.5c0-0.2-0.3-2,0.3-2.4c-0.3-0.9,1.1-3.4,1.2-4.6c0.8-0.5,1.6-2.2,1.6-2.3c0.4-0.2,1.1-0.8,1.2-0.9
	c0.5-0.1,0.8-0.4,1-0.7c1.3-0.8,2.7-1.5,4-2.2c0.4,0.1,5.2-0.4,6.2,0.2c0.7-0.1,4.1,1.4,4.5,1.5c0.1,0.1,2,2.3,3.2,3
	c0,0.2,0.4,0.7,0.7,0.8c0.1,0.2,0.9,1,1.2,2c0.8,0.8,0.7,2.1,1.1,3.1c0.2,0.5,0.5,0.8,0.5,1.2c0,0.3,0.3,1.7,0.3,2.1
	C259.4,218.5,259.5,219.5,259.4,220.4z M251.4,253.9h1.5l-1.5,4.3l-4.1,11.6h-3.4l-4.2-11.9l-4.2,11.9h-3.4l-5.5-15.8h2.7l4.5,13.3
	l4.6-13.3h2.5l4.7,13.3l4.5-13.3H251.4z M220.3,206.2c-0.1-0.4-0.7-1-0.7-1.3c-0.1-0.3-0.7-2-0.7-2.2c-0.3-0.6-1.6-1.8-1.8-2
	c-0.2-0.2-0.8-0.8-1-1c-0.2-0.2-1.9-1.8-2.3-2c-0.6-0.3-3.6-1.5-3.8-1.6c-0.3-0.1-2.5-0.7-3-0.9c-0.9-0.3-1.3-0.3-2.6-0.3
	c-1.1,0-1.7,0.1-2.4,0c-0.9-0.1-3.3,0.5-4.2,0.9c-0.6,0.3-3.4,1.7-3.8,2c-0.5,0.5-1.9,1.3-2.3,1.5c-1,0.4-1.9,1.6-3.3,1.6
	c-0.3,0.1-0.4,0-0.6-0.2c0-0.4-0.1-1.2,0.2-1.6c0.3-1.3-0.9-2.9-1.1-3c-0.5-0.1-1.4-0.6-1.8-0.6c-0.9-0.1-1.9-0.3-2.2-0.2
	c-0.6,0-1.2,0.4-1.5,0.2c-0.5-0.1-1.4,0.2-1.7,0.2c-0.6,0-0.9,0-1.3,0c-1.8-0.2-3.4,0.3-5.1,0.2c-0.5-0.2-1.7-0.2-2.3-0.2
	c-0.8,0.2-1.2,0.6-1.5,1.1c-0.3,0.8-0.3,2.4-0.1,3.7c0.2,0.6,0.3,1,0.8,1.3c0.7,0.2,1.1,0.5,1.6,0.7c0.4,0.1,0.7,0,0.9,0.2
	c0.5,0.1,1.6-0.4,1.7-0.4c0.8,0.1,1.6-0.2,2.2-0.2c1.2,0,2.6,0.2,2.9,0.4c0.5,0.3,1.2,1.4,1.4,3.3c0.2,1.7,0.5,5.2,0.3,7.3
	c-0.1,0.7,0,0.9-0.2,2.1c-0.1,0.6,0.2,8.6,0.1,12.7c0.3,1.4-0.2,3-0.2,4.3c0,1.1-0.3,2.5-0.7,2.6c-1.2-0.2-0.6,0.3-1.6,0.2
	c-0.2,0-0.6,0-0.8,0c-0.3,0-0.4,0.1-0.8,0.2c-1.7-0.4-2.4,0.9-3.1,1.9c0,0.2-0.2,0.4-0.2,0.9c-0.1,0.3,0,0.7-0.1,0.9
	c0,1,0.3,0.9,0.4,1.4c0,0.3-0.2,0.6-0.1,0.9c0.1,0.6,0.6,0.9,1,1.1c0.6,0.1,2.4,0.6,2.6,0.6c0.3-0.1,1.6,0.1,1.7,0.1
	c0.4,0,0.9-0.2,1.4-0.2c0.2,0,0.5,0.1,0.7,0.1c0.4,0,2.4,0.1,2.7,0.1c0.2,0,0.6-0.3,0.9-0.2c0.3,0,0.7,0.4,1.1,0.3
	c0.4,0,1.9-0.2,2.3,0c0.1,0,0.7,0,0.9,0c0.7-0.2,1.1-0.2,1.9-0.1c0.7,0,1.9,0.3,2.2,0.2c0.6,0,3.4-1,3.6-1.1c0.4-0.5,0.9-1.1,1-1.5
	c0.1-1.1-0.6-2-0.6-2.4c0.4-1.2-0.4-2.3-0.7-2.4c-0.3-0.3-0.5-0.2-0.8-0.2c-0.7-0.1-1.2-0.1-1.7,0c-0.3,0.1-1.7,0-1.9-0.8
	c-0.3-0.4-1.4-0.7-2-1.1c-0.6-0.6-0.7-1.3-0.7-1.4c0.1-1.1,0.1-2.4,0.1-3.3c0-0.5-0.2-1.1-0.2-1.6c0-0.9,0-1.6,0-2.5
	c0-0.3-0.1-0.7-0.1-1.1c-0.1-0.9,0.2-1.8,0.2-2.6c0.1-0.6,0-1.1,0-1.7c0-1,0.1-2,0.1-3c0-0.7,0.3-1.8,0.3-2.6c0-0.5-0.1-0.7,0.3-1.2
	c0.1-0.1,0.3-0.4,0.4-0.6c0-0.9,0.5-1.1,0.7-1.9c0.1-0.4,1.3-2.5,2.2-3c0.1,0,2.6-1.8,2.9-2.1c0.5-0.4,1.1-0.8,1.5-0.9
	c0.2,0,2.3-1,3-1.1c0.6-0.4,2.9-0.7,3.2-0.7c0.1,0,0.3,0,0.6,0c0.5,0,1.7-0.1,2.1,0.1c0.4,0.3,1.4,0.4,1.6,0.4
	c0.2,0.1,0.5,0,0.7,0.2c1.1,0.8,1.3,2.3,0.9,2.8c-0.4,0.4-0.7,0.9-0.9,1c-0.5,0.2-0.7,0.2-1.3,0.4c-2.5,1.7-2.2,4.4-2.1,5.6
	c0.1,0.6,0.6,1.3,0.8,1.7c0,0.1,0.4,1.3,0.7,1.7c0.3,0.6,0.8,1,1.1,1.2c0.3,0.2,4.1,0.5,4.6,0.5c0.3-0.2,0.8-0.5,1.6-0.5
	c1.1,0.1,1.3-0.7,2.1-0.9c0.3-0.1,0.6-0.3,0.8-0.4c0.6-0.9,1.7-2.9,1.8-3c0.1-0.4,0.7-1.2,0.8-1.5c0-0.7-0.2-0.8-0.1-1.4
	c0.4-1.2,0.4-2.4,0.4-2.7C220.2,206.9,220.4,206.7,220.3,206.2z M187.6,202.6c0,0,0,0,0-0.1c0,0,0,0,0,0
	C187.6,202.6,187.6,202.6,187.6,202.6z M200.8,253.9h4.5v1.9h-4.5v10.1c0,0.9,0.2,1.5,0.6,1.8c0.3,0.2,1,0.3,2.1,0.3
	c0.5,0,1-0.1,1.7-0.2h0.1v1.8c-0.4,0.1-0.9,0.2-1.2,0.3h-1.6c-1.6,0-2.7-0.2-3.4-0.8c-0.8-0.5-1.2-1.3-1.2-2.3v-11h-2.9v-1.9h2.9
	v-5.1h2.9V253.9z M173.1,247.6c0.5,0.1,0.9,0.1,1.4,0.2v1.8c-0.3-0.1-0.8-0.1-1.1-0.1c-0.3-0.1-0.7-0.1-0.9-0.1
	c-0.8,0-1.3,0.2-1.8,0.5c-0.3,0.3-0.6,0.8-0.6,1.5v2.5h4.3v1.9h-4.3v13.9h-2.7v-13.9H164v-1.9h3.4v-2.2c0-1.4,0.3-2.4,1.1-3.1
	c0.8-0.6,1.9-1.1,3.5-1.1C172.4,247.5,172.8,247.6,173.1,247.6z M164.6,241.9c0.5,0.5,0.9,0.7,1.2,0.7c0.6-0.2,1.5-0.2,2-0.4
	c0.3-0.1,1.3-0.8,1.5-0.9c0.2-0.2,0.9-1,1-1.3c1-1.3,0.7-3,0.6-3.3c0-0.1-0.3-1.1-0.4-1.5c-0.4-0.7-1.2-0.5-1.5-0.9
	c-0.3-0.5-2,0.2-2.7,0c-0.7-0.1-1.3-0.6-1.7-0.9c-0.6-0.6-0.9-1.8-1.2-2.3c-0.3-0.1,0-2.9-0.2-4.3c0-0.2,0.5-6.3,0.6-9.4
	c-0.1-0.5,0.1-0.8-0.1-1.5c0-0.4,0.1-1.6,0.2-1.8c0.1-0.6,0.2-1.3,0.2-2c0.1-1.2-0.2-2.2-0.4-3.5c-0.1-0.7-0.2-2.5-0.9-3.4
	c-0.1-2-0.9-3.1-1.4-4.8c-0.1,0-1-1.5-1.5-1.6c-0.5-0.8-2.6-2-3-2.2c-0.5-0.2-2.2-0.7-2.3-0.7c-0.3,0-2.7-0.7-3.1-0.7
	c-0.1-0.1-2.2-0.4-3-0.6c-0.4,0.1-2.2-0.1-2.6-0.1c-0.3,0-0.7-0.1-1-0.1c-0.3,0-1.1,0-1.2,0c-1.1,0-3.3,0.3-3.4,0.3
	c-1,0.2-1.9,0.5-2.9,0.8c-4,1.3-4.2,2-5,2.7c-0.3,0.4-2.5,1.9-2.6,2.8c-0.1,0.4-1,2.5-1,3.4c-0.3,1.3-1.1,3.1-1.1,3.9
	c0.2,0.7,0.1,1.4,0.3,2.1c0.1,0.2,1.3,2.1,1.3,2.1c0.3,0.4,0.3,0.5,0.8,0.9c0.6,0.5,1.7,0.2,2.3,0.6c0.2,0,1.4,0.2,1.7,0.2
	c0.9-0.2,1.7-0.6,1.9-0.7c0.4-0.3,1.2-1,1.6-1.4c0.2-0.8,0.8-1,0.7-1.9c0-0.1,0-0.6-0.1-0.9c-0.2-0.8-0.7-1.8-0.7-2
	c-0.2-1.3-0.3-2.7,0.4-3.3c0-0.1,2-1.5,2.8-1.5c0.7-0.2,3.6-0.7,5.3-0.7c0.9,0,5.8,0.5,6.8,0.9c0.7,0.3,1.9,1.1,2.3,2
	c0,0.1,0.9,1.6,1,2.6c0.1,0.5,0,1.5,0,2.1c0.2,0.9,0,1.5-0.1,2.2c-0.3,0.4-0.7,1.8-1.2,2.2c-1.1,0.6-1.8,1.1-2.8,1.4
	c-0.9,0.2-2.8,0.6-3,0.6c-0.2-0.1-0.7-0.1-0.9-0.1c-0.2,0-0.4,0-0.5,0.1c-0.8,0-4.8,0-6.6,0.1c-1,0.1-1.6,0.1-2.6,0.2
	c-0.8,0.1-1.4,0.4-2.1,0.5c0-0.1-0.7,0.1-1.3,0.4c-0.5,0.2-1.1,0.4-1.2,0.5c-0.3,0-1.9,0.7-2.2,1c-0.3,0.2-0.8,0.7-1,1.1
	c-1.5,0.9-4.3,5-4.2,6.1c0,0.2-0.2,0.2-0.2,0.4c0,0.1-0.4,0.7-0.5,1.7c-0.1,0.6,0,1.6,0,1.8c-0.3,0.9,0,1.6,0,2.6
	c0.1,0.5,0.7,2.5,1.5,3.3c0.4,0.5,0.7,1,0.8,1.1c0.2,0.9,1.8,1.9,1.9,1.8c0.1,0.1,1.1,1,1.8,1.6c0.6,0.2,2.1,1.1,3.1,1.4
	c0.3,0.3,3,0.8,3.5,0.9c0.4,0.2,1.6,0.3,2,0.4c0.6,0,1.7-0.2,2.6-0.3c0.4,0,2.7-0.4,3.4-0.5c0.5-0.1,2.2-0.7,2.6-0.8
	c0.5-0.3,1.6-0.8,1.7-0.8c0.7-0.6,1.8-1,2.4-1.7c0.3-0.1,0.4-0.3,0.7-0.3c0.3-0.3,1.4-0.2,2.6-0.2c0.1,0.2,1.5-0.2,2.7,0.6
	c0.5,0.1,1.3,0.8,1.6,1.1c0.3,0.3,0.2,0.5,0.7,0.7c0.1,0.2,1.6,0.3,1.8,0.4C164.2,241.4,164.5,241.7,164.6,241.9z M156,227.6
	c-0.5,0.9-1,1.9-1.8,2.5c-0.2,0.3-1.6,1.2-2.1,1.7c-0.5,0.4-1,0.7-1.3,0.8c-0.1,0-3.5,1.8-5,2.4c-2.5,0.4-4.8,0.8-7,0.2
	c-1.2-0.2-2.4-0.7-3.3-1.2c-0.4-0.3-0.8-1-0.9-1.3c-0.1-0.1-0.6-1.9-0.4-2.9c0.1-0.8,0.3-2.3,0.5-2.8c0.8-1.5,1.1-1.7,2.6-2.5
	c0.6-0.3,1.5-0.8,2.1-0.7c0.2,0,3-0.7,3.7-0.7c1.5-0.1,3.2-0.4,4.7-0.3c1,0.1,1.9-0.4,2.8-0.5c0.5,0,1.3,0.2,1.7,0.3
	c0.9-0.1,2.5,1.6,2.7,1.6c0.8,0.2,1.3,0.7,1.3,1.9C156.2,226.7,156.2,227,156,227.6z M134.4,253.7c-2.6,0-4.6,0.7-6.1,2.1
	c-1.5,1.4-2.3,3.4-2.3,5.9c0,2.7,0.8,4.7,2.3,6.1c1.5,1.5,3.5,2.1,6.1,2.1c2.7,0,4.7-0.6,6.2-2.1c1.5-1.4,2.2-3.4,2.2-6.1
	c0-2.5-0.7-4.6-2.2-5.9C139.2,254.3,137.1,253.7,134.4,253.7z M138.5,266.5c-0.9,1-2.3,1.6-4.1,1.6c-1.8,0-3.2-0.5-4.1-1.6
	c-0.9-1.1-1.5-2.7-1.5-4.8c0-2,0.6-3.5,1.5-4.7c0.9-1.1,2.3-1.6,4.1-1.6c1.8,0,3.2,0.5,4.1,1.6c1,1.2,1.5,2.6,1.5,4.8
	C140,263.9,139.5,265.5,138.5,266.5z M95.3,220.1c2.8-0.1,2.5,0.3,5.2,0c1.2,0,3.8,0.2,4.6,0c0.1,0,3.4-0.4,4.3-0.4
	c0.9,0.2,1.8,0.1,2.5,0.4c0.3,0.1,2.3,0.2,2.7,0c0.4-0.1,0.6-0.4,1-0.4c2.1-0.1,5.7,0.4,6.1,0.1c0.6-0.4,0.6-1,1.3-1.1
	c1.2-1.6,0.4-4.4,0.2-5c-0.1-0.6-0.2-1-0.2-1.4c0-0.7-0.2-0.9-0.4-1.6c0.1-0.6-0.1-2-0.1-2.1c0-1-0.3-1.7-0.8-2.4
	c-0.3-0.6-1.8-2.8-2.5-3.3c-0.1-0.1-0.8-1.2-1.3-1.6c-0.8-0.2-1.6-1.4-1.6-1.6c-0.4-0.2-1.4-1.1-1.7-1.2c0.1,0-2-1.2-2.8-1.3
	c-0.1-0.1-1.7-0.5-1.9-0.6c-0.1-0.4-3.7-1.2-4.1-1.1c-1.2-0.2-1.9-0.2-2.9-0.3c-0.6,0-1.2-0.1-1.7-0.1c-2.2,0-4.1-0.2-5.9,0.8
	c-0.8,0.1-1.5,0.2-2,0.6c-0.1,0.1-1.6,1.1-1.7,1.1c-0.2,0-2.1,1.5-2.3,1.8c-0.4,0.6-3.5,3.4-3.6,3.4c-1.2,1.3-2.2,2.8-2.8,4.6
	c-0.3,0.3-1,1.5-1.1,2.1c-0.1,0.3-0.9,1.9-1,2.5c-0.3,0.6-0.6,1.6-0.6,2.2c0.2,2.4-0.4,2.8-0.2,5.1c-0.2,0.9-0.2,4.2-0.2,4.4
	c0,0.6,0.4,2.6,0.7,3.5c0.1,0.7,0.4,1.4,0.9,3.3c0.3,0.9,1.2,2.3,1.5,2.7c0.4,0.3,0.7,0.8,1,1.2c0.2,0.4,2.7,2.7,3.2,3
	c1.1,0.4,1.5,0.8,2.4,2.3c0.3,0.2,1,0.4,1.2,0.5c0.1,0.2,3.5,1.6,3.7,1.6c0.5,0,2.9,0.6,3.5,0.9c0.2,0.1,2.9,0.5,3.1,0.5
	c1.4,0.1,2.6,0.3,4.1,0c0.2,0,3.7-1,4.1-1.1c0.6,0,0.8,0,1.4-0.2c0.3,0,0.4-0.1,0.7-0.1c0.5-0.1,0.9-0.4,1.3-0.6
	c0.4-0.2,4.2-2.5,4.7-2.9c0.5-0.4,0.9-1.1,1.6-1.7c0.5-0.5,2.3-2.2,2.7-2.8c0.2-0.5,0.5-1.2,0.5-1.6c0.2-0.4,0.1-0.7,0.2-0.9
	c0.1-0.6,0.7-1.1,0.8-1.6c0-0.1,0.2-0.6,0.3-0.8c0.2-0.3,0.7-2.4,0.5-2.8c-0.2-0.4-0.1-0.4-0.2-0.7c-0.3-0.3-0.5-0.7-0.8-0.9
	c-0.1-0.1-0.4-0.6-0.7-0.7c-0.5-0.3-0.8-0.3-1.2-0.4c-0.7-0.2-1.6-0.1-2.2,0c-0.4,0.1-2.1,0.7-2.6,1.2c-0.4,0.3-0.5,0.6-0.7,1
	c-0.1,0.4,0,0.8,0,1.3c0,0.4-0.4,1-0.4,1.2c0,0.2-0.1,1.7-0.2,1.7c-0.1,0.8-0.9,0.9-1,1.6c-0.6,0.2-0.8,0.7-1.2,1c0,0-0.7,0.5-1,0.7
	c-0.1,0-1.2,0.7-1.9,1c-0.2,0-0.3,0.1-0.6,0.1c-0.5-0.1-3.4,0.9-3.9,0.9c-0.4,0.1-1.5-0.1-1.7-0.1c-0.1-0.1-3.3-0.2-4.2-0.1
	c-1.2-0.3-3.9-1-4.9-1.5c-3.2-1.2-4.2-4-4.6-4.2c-1.2-0.9-2-2.8-2-4.7c0-1,0.1-3.8,0.6-4.3C89.1,219.6,95.1,220,95.3,220.1z
	 M91,208.1c0.5-0.8,3.2-3.8,3.9-4.2c0.6-0.4,4.1-1.6,5.2-1.8c1.1-0.1,2.2,0.1,3.2,0c0.8-0.1,4.7,0.9,5.9,1.2
	c0.7,0.2,2.3,1.6,2.4,1.8c0.1,0.1,0.8,0.9,1,1.1c0.3,0.3,1,1.4,1.3,1.7c0.6,0.6,0.4,1.5,1,2.1c1.6,1,0.7,3.4-1.4,3.2
	c-0.3,0-0.5-0.2-0.8-0.2c-1-0.2-5.5,0.4-6.6,0.4c-1.4,0.1-5.5-0.1-5.7-0.1c-0.2,0-2.9-0.2-3.3,0c-0.3,0-2.5,0.1-2.7,0.2
	c-0.4,0-0.8-0.2-1.3-0.2c-0.5,0-2,0.3-2.6-0.1c-0.1,0-0.7-0.5-0.9-0.7C88.9,211.6,90.4,208.5,91,208.1z M103.4,263.4
	c0.3,0.5,0.5,1.1,0.5,1.8c0,0.6-0.1,1.3-0.5,1.9c-0.3,0.6-0.9,1-1.6,1.5c-1.2,0.9-2.9,1.3-5.2,1.3c-1.6,0-3.1-0.2-4.3-0.7
	c-1.4-0.5-2.5-1.3-3.3-2.2l2.2-1.4c0.8,0.8,1.6,1.5,2.6,1.9c0.9,0.4,1.9,0.7,3,0.7c1.3,0,2.3-0.2,2.9-0.7c0.8-0.4,1.1-1.1,1.1-1.9
	c0-1.2-1.6-2.1-4.6-2.9c-0.7-0.1-1.1-0.2-1.6-0.3c-1.7-0.4-2.9-1-3.7-1.7c-0.9-0.7-1.2-1.6-1.2-2.7c0-1.3,0.6-2.3,1.6-3.1
	c1.1-0.9,2.6-1.2,4.4-1.2c1.5,0,2.8,0.2,4.1,0.6c1.1,0.4,2.3,1.1,3.2,1.9l-1.8,1.5c-0.8-0.8-1.6-1.3-2.5-1.7
	c-0.9-0.4-1.8-0.5-2.7-0.5c-1.2,0-2,0.3-2.5,0.6c-0.6,0.4-0.9,1-0.9,1.6c0,0.4,0,0.6,0.2,0.9c0.1,0.3,0.5,0.5,0.8,0.7
	c0.6,0.3,1.7,0.7,3.4,1.1c0.8,0.2,1.5,0.3,1.9,0.4c1.7,0.5,2.9,0.9,3.6,1.6C103,262.8,103.2,263.1,103.4,263.4z M78.5,249
	c-0.1-0.4-2-2.1-2.8-2.6c-0.1-0.1-1.1-1.5-1.8-1.9c-0.7-1-1.7-1.5-1.8-1.6c-0.9-0.2-3.6-1.9-4.3-1.7c-0.9-0.1-0.4-0.6-1.5-0.7
	c0-0.1-0.9-0.3-1.2-0.4c-1.5-0.5-4.4-0.5-4.6-0.6c-0.4-0.2-1.1-0.2-1.5-0.1c-1.5-0.2-9.2,0.4-9.3,0.4c-1.1,0.2-2.5,0.6-4,0.6
	c-0.4,0-1.1,0.5-1.6,0.5c-0.3,0-0.6,0.1-0.9,0.1c-0.2,0-0.4-0.3-0.6-0.2c0-0.2-0.3-0.2-0.5-0.1c-0.2,0-0.1-0.3-0.3-0.2
	c-0.2-0.1-0.8-0.4-1.1-0.4c-0.2-0.3-1.1-2.2-1.4-3.4c-1-0.7-0.6-1.5-0.5-2.6c-0.2-1.4,0.6-0.8,1-1.4c0.7-0.8,1.7-0.7,2.9-1
	c0.6,0,1.4,0.2,1.7,0.7c0.3,0.2,1.3,0.1,1.4,0.1c0.4,0.3,1.4,0.1,1.5,0.1c0.6,0.1,1.4,0.2,1.6,0.2c0.2,0.3,2.7,0.3,2.8,0.2
	c0,0.1,1.3,0,2.1-0.1c0,0.2,2.2-0.3,2.4-0.4c0.3,0.1,0.6-0.4,1-0.5c0.2,0.1,0.6-0.2,0.7-0.3c0.1,0.1,2.2-1.1,2.3-1.2
	c0.6,0.3,1.7-1.2,1.9-1.2c0.2,0,1-0.9,1.1-0.9c0.3-0.5,3.1-2.9,3.7-3.2c0-0.1,0.1-0.4,0.3-0.4c0.3-0.7,0.8-1.2,0.8-2.2
	c1.1-1.1,1.2-3.1,0.8-4.9c0-0.2,0.2-0.3,0.2-0.5c-0.3-0.7,0.3-1.4-0.2-1.9c0.2-1.2-0.8-2.2-0.4-3.4c0-0.1-0.1-0.2-0.1-0.4
	c0.2-1.6-1-3.5-1.4-5.2c0.3-0.8,0.7-1.7,1.3-1.9c0.2,0,1.8-0.1,2.4,0.4c0.4,0.5,0.4,1.1,0.8,1.5c0.1,0.2,0.1,1.3,0.2,1.8
	c0.1,0.3,0.5,0.6,0.4,1.1c0.5,0.2,0.9,0.5,1.3,0.8c0.1,0,0.8,0.4,1.1,0.3c1.1,0.2,5.5-1.5,5.7-2.3c0-0.2,1.1-1.1,0.8-1.6
	c0.1-0.1,0.1-0.3,0.2-0.5c0-1.3,0.2-5.1-0.7-5.7c-0.5-0.2-1.5-1.5-1.8-1.5c-0.2-0.2-0.9-0.5-1-0.4c-0.6-0.5-1.8-0.3-2.2-1
	c-1.4-0.1-1.7-1.2-3.3-1.3c0-0.2-0.3,0-0.4,0c-0.2-0.2-0.8-0.2-1.1-0.1c-0.2-0.3-0.8-0.2-1.3-0.2c-0.2-0.2-2.2,0.5-2.9,0.4
	c-0.4,0.6-1.3,0.2-1.7,1c-0.1,0-1.1,0.9-1.5,1.4c-1.1-0.2-1.7-0.2-2.7-0.6c0-0.1-1.7-1.1-1.8-1c-0.4-0.4-1.7-0.7-1.9-0.8
	c-0.1-0.1-0.3-0.2-0.5-0.1c-1.1-0.1-3-0.9-3.2-0.9c-0.1-0.2-1.3-0.5-2-0.5c0,0.1-3.5,0.1-3.7,0.1c-0.8-0.1-3.5,0.9-4.1,1.4
	c-0.1,0.3-0.3,0.5-0.6,0.6c-0.6-0.3-3.1,1.8-4.3,2c-0.2,0.6-0.9,0.8-1.3,1.2c-0.8,0-1,0.5-1.6,0.8c0.1,0.3-0.1,0.3-0.1,0.5
	c-0.7,0.2-1.1,1.1-1.6,1.3c0,0.5-0.3,0.6-0.6,0.8c0,0.8-0.9,0.8-1,1.6c-0.2,0.1-1.3,2.1-1.6,3.1c-0.2,1.4-0.9,2-0.8,3.5
	c-0.1,0.1-0.1,0.3,0,0.5c0.1,0.7-0.3,0.8,0,1.3c-0.5,0.5,0.2,2.2,0.2,2.6c0,1.2,1.4,5.2,1.5,5.4c0.3,0.3,0.6,0.7,0.6,1.2
	c1.7,0.7,1,3.2,1.5,4.7c-0.7,0.3-1.6,1.6-1.6,1.8c-1.3,1.3-2.6,4.1-2.3,6.3c0,0.6-0.1,1.4,0,1.6c-0.2,0.5,1.2,2.2,1.2,2.4
	c0,0.2,1.2,2.7,1.1,3.1c0.6,0.4,0.4,1.3,0.5,2c-0.2,0.4-0.6,0.7-0.6,1.3c-0.5-0.1-1.6,2.2-2,2.9c-0.6,0.2-1.1,1.4-1.1,1.6
	c-0.2,0.5-0.6,0.9-0.8,1.5c-0.1,0.4,0.1,0.8,0,1.2c0,0.2-0.5,1.3-0.4,1.8c-0.1,0.6-0.1,0.6,0.1,1.2c0.2,1,0.4,2.6,0.4,3.3
	c0.2,0.6,0.4,1.2,0.6,1.8c0.7,0.5,1.3,1.4,1.7,2c0.3,1,0.9,1.4,1.4,2c0.2,1.4,1.8,2.3,3.1,2.6c0.4,0.6,1.3,1,2,1
	c0.4,0.2,0.6,0.5,0.9,0.8c0.2,0,0.2-0.1,0.3-0.1c0.2,0.8,3.5,1.5,3.7,1.5c0.5,0.3,1,0.2,1.7,0.4c0.3-0.3,0.8,0,1.2,0
	c0.6-0.3,1.9-0.1,2.5,0.4c0.7-0.1,1.6,0,2.2,0.1c0.1,0,0.1-0.2,0.3-0.2c1.5,0.4,3.1,0.2,4.5-0.1c0.5,0.2,2.5-0.1,2.9-0.2
	c1.5,0.5,2.9,0,4.5-0.1c0.2,0,0.7,0.1,1,0.1c0.6-0.3,2.8-0.3,3.3-0.5c0.9-0.1,6.1-2.4,7.2-3.3c0.6-0.5,1-1.1,1.8-1.3
	c0.7-0.7,1.9-0.8,2.5-1.6c0.8-0.8,2.4-2.9,2.7-4.5l0.1-0.3c0.7-2,0-7.1-0.3-8.5C79.4,250.3,79,249.6,78.5,249z M38,210.8
	c0-0.6,0.8-1.5,1-1.9c0.2-0.4,1.7-2.4,2-3c0.1-0.2,0.5-0.6,0.8-0.9c0.4-0.4,0.8-0.9,1.2-1c0.2-0.1,0.5-0.1,0.7-0.2
	c0.4-0.2,0.7-0.6,1.1-0.7c1.6-0.6,3.9-0.3,6-0.3c1.6,0,3.1-0.2,4.5,0.4c0.8,0.3,1.3,0.9,1.9,1.4c0.3,0.3,0.7,0.5,0.9,0.8
	c0.2,0.3,0.4,0.7,0.6,1c0.4,0.4,1.3,1.7,1.6,2.3c0.2,0.4,0.5,0.6,0.6,1.1c0,0.4-0.1,0.9-0.1,1.3c0,1.9,0.9,3.5,0.8,5.2
	c0,0.4-0.8,1.5-0.8,1.8c-0.1,0.7-0.7,1.1-0.4,1.9c-0.7,1.1-1.9,2-3,2.9c-0.3,0.2-1,0.9-1.3,1c-0.3,0.1-0.7-0.1-1,0
	c-0.3,0.1-0.6,0.5-0.9,0.5c-0.2,0.1-0.5,0-0.8,0c-0.4,0.1-1.2,0.4-1.9,0.5h-0.8c-0.5,0-1.6-0.1-1.8,0c-0.3,0-1.6-0.4-2.4-0.3
	c-1.1-0.9-3.1-0.9-4-1.9c-1.4-0.2-1.9-1.3-2.7-2c-0.1-0.2-0.7-1.9-1-2.6c-0.2-0.4-1.2-3.3-1.2-4.6C37.8,212.4,38,211.7,38,210.8z
	 M72.9,256.7c-0.1,0.1-0.2,0.3-0.2,0.5c0,0.2,0.1,0.2,0,0.5c-0.3,0.8-0.9,1.3-1.5,1.9c-0.4,0.6-3.1,2.1-3.9,2.6
	c-0.3,0.2-1.1,0.1-1.2,0.2c-0.7-0.1-2,0.7-2.9,1c-0.2,0.1-1.5,0.4-1.7,0.6c-1.1-0.2-2.7,0-4-0.2c-0.2,0.1-2.8,0.1-3.1,0.1
	c-1.1,0-3,0.3-3.4,0.1c-0.5-0.3-2.6-0.5-2.8-0.5c-0.1,0-0.9,0.2-1.1,0.2c-0.2,0-0.5-0.1-0.7-0.1c-1.1-0.2-2.1-0.2-3.1,0
	c-0.3,0-1-0.3-1.3-0.3c-0.1-0.1-1.8-2.1-3.3-2.3c0-0.4-0.9-1.3-1-1.6c0-0.2-0.1-0.3-0.3-0.4c0-0.2-0.9-2.7-1.4-3.1
	c0,0-0.1-2.4,1-3.6c0-0.2,0.2-0.3,0.1-0.5c0.7-0.3,0.7-1.1,1.5-1.4c1-1.2,2.6-2.7,4.5-2.9c0.6-0.1,1-0.3,1.5-0.3
	c0.3,0,0.6,0.1,0.9,0.1c0.6,0,1.2-1.1,1.8-0.8c0.8-0.4,1.5,0.3,2.4,0.1c0.2-0.1,0.5-0.3,0.7-0.3c0.4-0.1,0.9,0,1.3-0.1
	c0.5-0.1,3,0,3.6-0.2c0.1,0.1,2.7-0.5,3.7-0.3c1.3,0.3,2.2,0,3.1,0.8c0.3,0.3,1.5,0.4,2,0.7c0.3,0,0.6,0.1,1.1,0.1
	c0.8,0.1,1.4,1,2.1,1.3c0.3,0.1,0.5,0.3,0.8,0.5c0.7,0.4,1.2,0.5,1.7,1c0.1,0.2,0.2,0.4,0.3,0.6c0.3,0.4,0.8,0.5,1.2,0.8
	c0.3,0.2,0.2,1.3,0.5,1.4C72.2,253.6,73.2,255.5,72.9,256.7z"/>
</svg>
