<?xml version="1.0" encoding="UTF-8"?>
<svg xmlns="http://www.w3.org/2000/svg" xmlns:xlink="http://www.w3.org/1999/xlink" viewBox="0 0 48 48" width="48px" height="48px">
<g id="surface58480366">
<path style=" stroke:none;fill-rule:nonzero;fill:rgb(100%,100%,100%);fill-opacity:1;" d="M 24 1.921875 C 11.816406 1.921875 1.921875 11.816406 1.921875 24 C 1.921875 36.183594 11.816406 46.078125 24 46.078125 C 36.183594 46.078125 46.078125 36.183594 46.078125 24 C 46.078125 11.816406 36.183594 1.921875 24 1.921875 Z M 24 3.839844 C 35.144531 3.839844 44.160156 12.855469 44.160156 24 C 44.160156 35.144531 35.144531 44.160156 24 44.160156 C 12.855469 44.160156 3.839844 35.144531 3.839844 24 C 3.839844 12.855469 12.855469 3.839844 24 3.839844 Z M 29.464844 13.496094 C 26.007812 13.496094 23.1875 16.316406 23.1875 19.773438 C 23.1875 19.796875 23.195312 19.820312 23.195312 19.84375 C 19.53125 19.359375 16.292969 17.550781 14.066406 14.820312 C 13.867188 14.578125 13.5625 14.449219 13.25 14.472656 C 12.933594 14.496094 12.652344 14.671875 12.496094 14.945312 C 11.953125 15.875 11.644531 16.957031 11.644531 18.101562 C 11.644531 19.121094 11.929688 20.070312 12.363281 20.925781 C 11.921875 21.019531 11.601562 21.410156 11.601562 21.863281 L 11.601562 21.929688 C 11.601562 23.785156 12.472656 25.394531 13.757812 26.546875 C 13.496094 26.800781 13.398438 27.183594 13.507812 27.53125 C 14.046875 29.199219 15.296875 30.503906 16.859375 31.238281 C 15.609375 31.824219 14.265625 32.246094 12.789062 32.246094 C 12.394531 32.246094 12.011719 32.222656 11.632812 32.175781 C 11.1875 32.121094 10.765625 32.382812 10.613281 32.804688 C 10.464844 33.226562 10.625 33.699219 11.003906 33.9375 C 13.503906 35.542969 16.480469 36.480469 19.671875 36.480469 C 24.828125 36.480469 28.902344 34.3125 31.625 31.222656 C 34.347656 28.132812 35.765625 24.148438 35.765625 20.390625 C 35.765625 20.277344 35.757812 20.167969 35.757812 20.058594 C 36.691406 19.308594 37.570312 18.480469 38.238281 17.484375 C 38.460938 17.144531 38.453125 16.703125 38.207031 16.375 C 37.964844 16.050781 37.546875 15.910156 37.15625 16.03125 C 37.3125 15.730469 37.53125 15.46875 37.636719 15.140625 C 37.757812 14.757812 37.632812 14.34375 37.320312 14.097656 C 37.011719 13.847656 36.578125 13.816406 36.234375 14.019531 C 35.394531 14.515625 34.453125 14.84375 33.472656 15.074219 C 32.375 14.136719 31.011719 13.496094 29.464844 13.496094 Z M 29.464844 15.417969 C 30.726562 15.417969 31.851562 15.941406 32.644531 16.789062 C 32.871094 17.03125 33.207031 17.140625 33.53125 17.078125 C 33.675781 17.046875 33.792969 16.957031 33.9375 16.921875 C 33.917969 16.933594 33.910156 16.953125 33.890625 16.964844 C 33.519531 17.1875 33.34375 17.632812 33.460938 18.050781 C 33.582031 18.46875 33.964844 18.753906 34.398438 18.746094 C 34.332031 18.796875 34.292969 18.875 34.226562 18.925781 C 33.964844 19.113281 33.816406 19.421875 33.828125 19.742188 C 33.835938 19.960938 33.84375 20.175781 33.84375 20.390625 C 33.84375 23.660156 32.582031 27.238281 30.1875 29.953125 C 27.789062 32.671875 24.296875 34.558594 19.671875 34.558594 C 18.082031 34.558594 16.589844 34.242188 15.167969 33.761719 C 16.9375 33.386719 18.613281 32.761719 19.984375 31.683594 C 20.300781 31.433594 20.429688 31.007812 20.300781 30.625 C 20.171875 30.242188 19.816406 29.980469 19.410156 29.96875 C 18.050781 29.945312 17.003906 29.175781 16.222656 28.183594 C 16.507812 28.148438 16.808594 28.148438 17.082031 28.070312 C 17.511719 27.953125 17.804688 27.554688 17.789062 27.109375 C 17.773438 26.667969 17.453125 26.289062 17.015625 26.203125 C 15.429688 25.882812 14.195312 24.695312 13.738281 23.15625 C 14.148438 23.253906 14.507812 23.472656 14.941406 23.488281 C 15.367188 23.5 15.753906 23.230469 15.882812 22.820312 C 16.015625 22.414062 15.859375 21.96875 15.503906 21.730469 C 14.332031 20.949219 13.566406 19.621094 13.566406 18.101562 C 13.566406 17.789062 13.734375 17.539062 13.796875 17.246094 C 16.523438 19.945312 20.152344 21.738281 24.238281 21.941406 C 24.539062 21.957031 24.832031 21.832031 25.023438 21.597656 C 25.21875 21.367188 25.289062 21.058594 25.21875 20.765625 C 25.144531 20.449219 25.105469 20.117188 25.105469 19.773438 C 25.105469 17.355469 27.046875 15.417969 29.464844 15.417969 Z M 29.464844 15.417969 "/>
</g>
</svg>
